<mxfile host="Electron" agent="Mozilla/5.0 (Windows NT 10.0; Win64; x64) AppleWebKit/537.36 (KHTML, like Gecko) draw.io/26.0.9 Chrome/128.0.6613.186 Electron/32.2.5 Safari/537.36" version="26.0.9">
  <diagram name="Page-1" id="9wbFxXxZaRQLDSygHYYO">
    <mxGraphModel dx="733" dy="443" grid="1" gridSize="10" guides="1" tooltips="1" connect="1" arrows="1" fold="1" page="1" pageScale="1" pageWidth="850" pageHeight="1100" math="0" shadow="0">
      <root>
        <mxCell id="0" />
        <mxCell id="1" parent="0" />
        <mxCell id="t6SmcvptkM3LfDpZrJue-1" value="Course" style="rounded=0;whiteSpace=wrap;html=1;" vertex="1" parent="1">
          <mxGeometry x="20" y="190" width="80" height="40" as="geometry" />
        </mxCell>
        <mxCell id="t6SmcvptkM3LfDpZrJue-2" value="Configuration 1" style="rounded=0;whiteSpace=wrap;html=1;" vertex="1" parent="1">
          <mxGeometry x="160" y="120" width="120" height="40" as="geometry" />
        </mxCell>
        <mxCell id="t6SmcvptkM3LfDpZrJue-3" value="Configuration 2" style="rounded=0;whiteSpace=wrap;html=1;" vertex="1" parent="1">
          <mxGeometry x="160" y="175" width="120" height="40" as="geometry" />
        </mxCell>
        <mxCell id="t6SmcvptkM3LfDpZrJue-4" value="Configuration N" style="rounded=0;whiteSpace=wrap;html=1;" vertex="1" parent="1">
          <mxGeometry x="160" y="270" width="120" height="40" as="geometry" />
        </mxCell>
        <mxCell id="t6SmcvptkM3LfDpZrJue-6" value="" style="curved=1;endArrow=classic;html=1;rounded=0;exitX=1;exitY=0.5;exitDx=0;exitDy=0;entryX=0;entryY=0;entryDx=0;entryDy=0;" edge="1" parent="1" source="t6SmcvptkM3LfDpZrJue-1" target="t6SmcvptkM3LfDpZrJue-2">
          <mxGeometry width="50" height="50" relative="1" as="geometry">
            <mxPoint x="400" y="300" as="sourcePoint" />
            <mxPoint x="450" y="250" as="targetPoint" />
            <Array as="points">
              <mxPoint x="130" y="210" />
              <mxPoint x="110" y="140" />
            </Array>
          </mxGeometry>
        </mxCell>
        <mxCell id="t6SmcvptkM3LfDpZrJue-8" value="" style="curved=1;endArrow=classic;html=1;rounded=0;exitX=1;exitY=0.5;exitDx=0;exitDy=0;entryX=0;entryY=1;entryDx=0;entryDy=0;" edge="1" parent="1" source="t6SmcvptkM3LfDpZrJue-1" target="t6SmcvptkM3LfDpZrJue-4">
          <mxGeometry width="50" height="50" relative="1" as="geometry">
            <mxPoint x="110" y="230" as="sourcePoint" />
            <mxPoint x="170" y="230" as="targetPoint" />
            <Array as="points">
              <mxPoint x="130" y="220" />
              <mxPoint x="120" y="270" />
              <mxPoint x="120" y="300" />
            </Array>
          </mxGeometry>
        </mxCell>
        <mxCell id="t6SmcvptkM3LfDpZrJue-9" value="Subpart 1" style="rounded=0;whiteSpace=wrap;html=1;" vertex="1" parent="1">
          <mxGeometry x="360" y="80" width="120" height="30" as="geometry" />
        </mxCell>
        <mxCell id="t6SmcvptkM3LfDpZrJue-10" value="Subpart 2" style="rounded=0;whiteSpace=wrap;html=1;" vertex="1" parent="1">
          <mxGeometry x="360" y="120" width="120" height="30" as="geometry" />
        </mxCell>
        <mxCell id="t6SmcvptkM3LfDpZrJue-11" value="Subpart N" style="rounded=0;whiteSpace=wrap;html=1;" vertex="1" parent="1">
          <mxGeometry x="360" y="190" width="120" height="30" as="geometry" />
        </mxCell>
        <mxCell id="t6SmcvptkM3LfDpZrJue-12" value="" style="shape=ellipse;fillColor=#000000;strokeColor=none;html=1;sketch=0;" vertex="1" parent="1">
          <mxGeometry x="214" y="230" width="5" height="5" as="geometry" />
        </mxCell>
        <mxCell id="t6SmcvptkM3LfDpZrJue-14" value="" style="shape=ellipse;fillColor=#000000;strokeColor=none;html=1;sketch=0;" vertex="1" parent="1">
          <mxGeometry x="214" y="240" width="5" height="5" as="geometry" />
        </mxCell>
        <mxCell id="t6SmcvptkM3LfDpZrJue-15" value="" style="shape=ellipse;fillColor=#000000;strokeColor=none;html=1;sketch=0;" vertex="1" parent="1">
          <mxGeometry x="214" y="250" width="5" height="5" as="geometry" />
        </mxCell>
        <mxCell id="t6SmcvptkM3LfDpZrJue-16" value="" style="shape=ellipse;fillColor=#000000;strokeColor=none;html=1;sketch=0;" vertex="1" parent="1">
          <mxGeometry x="415.5" y="158" width="5" height="5" as="geometry" />
        </mxCell>
        <mxCell id="t6SmcvptkM3LfDpZrJue-17" value="" style="shape=ellipse;fillColor=#000000;strokeColor=none;html=1;sketch=0;" vertex="1" parent="1">
          <mxGeometry x="415.5" y="168" width="5" height="5" as="geometry" />
        </mxCell>
        <mxCell id="t6SmcvptkM3LfDpZrJue-18" value="" style="shape=ellipse;fillColor=#000000;strokeColor=none;html=1;sketch=0;" vertex="1" parent="1">
          <mxGeometry x="415.5" y="178" width="5" height="5" as="geometry" />
        </mxCell>
        <mxCell id="t6SmcvptkM3LfDpZrJue-19" value="" style="curved=1;endArrow=classic;html=1;rounded=0;exitX=1;exitY=0.5;exitDx=0;exitDy=0;entryX=0;entryY=0;entryDx=0;entryDy=0;" edge="1" parent="1" source="t6SmcvptkM3LfDpZrJue-2" target="t6SmcvptkM3LfDpZrJue-9">
          <mxGeometry width="50" height="50" relative="1" as="geometry">
            <mxPoint x="110" y="250" as="sourcePoint" />
            <mxPoint x="170" y="130" as="targetPoint" />
            <Array as="points">
              <mxPoint x="310" y="140" />
              <mxPoint x="310" y="80" />
            </Array>
          </mxGeometry>
        </mxCell>
        <mxCell id="t6SmcvptkM3LfDpZrJue-20" value="" style="curved=1;endArrow=classic;html=1;rounded=0;exitX=1;exitY=0.5;exitDx=0;exitDy=0;entryX=0;entryY=1;entryDx=0;entryDy=0;" edge="1" parent="1" source="t6SmcvptkM3LfDpZrJue-2" target="t6SmcvptkM3LfDpZrJue-11">
          <mxGeometry width="50" height="50" relative="1" as="geometry">
            <mxPoint x="290" y="150" as="sourcePoint" />
            <mxPoint x="370" y="90" as="targetPoint" />
            <Array as="points">
              <mxPoint x="300" y="140" />
              <mxPoint x="310" y="160" />
              <mxPoint x="310" y="220" />
            </Array>
          </mxGeometry>
        </mxCell>
      </root>
    </mxGraphModel>
  </diagram>
</mxfile>
